<svg id="Capa_1" data-name="Capa 1" xmlns="http://www.w3.org/2000/svg" viewBox="0 0 310.14 122"><defs><style>.cls-1{fill:#fff;}</style></defs><title>campusabierto_marca_blanca</title><path class="cls-1" d="M99.28,41.18a10.36,10.36,0,0,0,3.33,2.19,10.22,10.22,0,0,0,3.94.78,11,11,0,0,0,2-.2,15.77,15.77,0,0,0,2.22-.62l.52-.19V37a6,6,0,0,1-4.46,2.11,5.28,5.28,0,0,1-5-3.33,6,6,0,0,1,0-4.35A5.27,5.27,0,0,1,103,29.72a5.43,5.43,0,0,1,1.7-1.15,5.63,5.63,0,0,1,6.59,1.77V24.16a14.59,14.59,0,0,0-2.41-.78,11.48,11.48,0,0,0-2.34-.25A10.44,10.44,0,0,0,97,29.38a10.73,10.73,0,0,0,0,8.44A10.81,10.81,0,0,0,99.28,41.18Z"/><path class="cls-1" d="M120.94,40.13h7.39l1.19,3.46H135l-7.58-19.9h-5.65l-7.57,19.9h5.51Zm3.7-10.55L127,36.2h-4.65Z"/><polygon class="cls-1" points="144.33 32.13 148.79 43.59 150.85 43.59 155.55 32.13 157.27 43.59 162.41 43.59 159.03 23.69 153.91 23.69 149.95 34.3 145.97 23.69 140.85 23.69 137.47 43.59 142.62 43.59 144.33 32.13"/><path class="cls-1" d="M171.92,37H175a7,7,0,0,0,5.13-1.74,6.55,6.55,0,0,0,1.79-4.91,6.55,6.55,0,0,0-1.79-4.91A7,7,0,0,0,175,23.69h-8.24v19.9h5.18Zm0-9.13h1.71c1.9,0,2.85.83,2.85,2.48s-.95,2.48-2.85,2.48h-1.71Z"/><path class="cls-1" d="M194.38,44.15c2.94,0,5.12-.72,6.54-2.14S203,38.32,203,35.22V23.69h-5.15V34.51c0,.58,0,1.18-.06,1.78a4.77,4.77,0,0,1-.41,1.65,2.81,2.81,0,0,1-1,1.2,4.49,4.49,0,0,1-4,0,2.65,2.65,0,0,1-1-1.2,4.76,4.76,0,0,1-.39-1.65c-.05-.6-.07-1.2-.07-1.78V23.69H185.7V35.22q0,4.65,2.13,6.79C189.26,43.43,191.44,44.15,194.38,44.15Z"/><path class="cls-1" d="M217.19,31.45l-1.28-.4a6.53,6.53,0,0,1-1.16-.43,2.82,2.82,0,0,1-.83-.6,1.23,1.23,0,0,1-.32-.87,1.49,1.49,0,0,1,.63-1.24,2.66,2.66,0,0,1,1.64-.47,4.48,4.48,0,0,1,1.64.33,6.74,6.74,0,0,1,1.69,1l2.06-4a14.54,14.54,0,0,0-3.09-1.2,12.76,12.76,0,0,0-3.09-.41,8.15,8.15,0,0,0-2.87.48,6.2,6.2,0,0,0-2.16,1.33A5.86,5.86,0,0,0,208.68,27a7,7,0,0,0-.49,2.68,5.59,5.59,0,0,0,.46,2.44,4.77,4.77,0,0,0,1.21,1.6,6.57,6.57,0,0,0,1.72,1c.64.25,1.3.48,2,.7s1,.36,1.44.52a4.26,4.26,0,0,1,1,.52,1.67,1.67,0,0,1,.53.61,1.86,1.86,0,0,1,.16.77,1.76,1.76,0,0,1-.62,1.32,2.69,2.69,0,0,1-1.89.59,5.48,5.48,0,0,1-2.25-.51,8.8,8.8,0,0,1-2.29-1.53l-2.22,4.17a12,12,0,0,0,7,2.25,10.29,10.29,0,0,0,3.26-.49,7.09,7.09,0,0,0,2.43-1.37,5.85,5.85,0,0,0,1.5-2.13,7.23,7.23,0,0,0,.51-2.77,5.58,5.58,0,0,0-1.17-3.68A7.88,7.88,0,0,0,217.19,31.45Z"/><path class="cls-1" d="M115.9,70.16l-7.58-19.9h-5.65L95.1,70.16h5.52l1.18-3.45h7.4l1.18,3.45Zm-12.73-7.39,2.33-6.62,2.32,6.62Z"/><path class="cls-1" d="M133.91,66.87a6,6,0,0,0,.49-2.49,6.63,6.63,0,0,0-.21-1.69,3.93,3.93,0,0,0-.7-1.42,4,4,0,0,0-1.26-1.07,6.26,6.26,0,0,0-1.89-.65A4.54,4.54,0,0,0,132,57.88a5.2,5.2,0,0,0,.54-2.5,4.9,4.9,0,0,0-1.43-3.8,5.92,5.92,0,0,0-4.16-1.32h-7.71v19.9h8.31a10,10,0,0,0,2.85-.37,5.76,5.76,0,0,0,2.15-1.1A5,5,0,0,0,133.91,66.87ZM124.4,54.22h.95c1.62,0,2.43.64,2.43,1.93s-.81,1.92-2.43,1.92h-.95Zm3.93,11.43a5.81,5.81,0,0,1-2.8.5H124.4V61.93h1.13a5.81,5.81,0,0,1,2.8.5,1.95,1.95,0,0,1,0,3.22Z"/><rect class="cls-1" x="138.55" y="50.26" width="5.17" height="19.9"/><polygon class="cls-1" points="160.28 54.64 160.28 50.26 148.95 50.26 148.95 70.17 160.28 70.17 160.28 65.78 154.13 65.78 154.13 62.35 159.93 62.35 159.93 57.97 154.13 57.97 154.13 54.64 160.28 54.64"/><path class="cls-1" d="M181.61,70.16,175.35,62a5.48,5.48,0,0,0,3.23-1.92,5.84,5.84,0,0,0,1.1-3.68,6.92,6.92,0,0,0-.41-2.38,5.71,5.71,0,0,0-1.21-2A5.6,5.6,0,0,0,176,50.75a7.85,7.85,0,0,0-2.91-.49h-8v19.9h5.18V62.51l4.94,7.65Zm-8.06-11.64a3.7,3.7,0,0,1-2.35.64h-1V54.25h1a3.76,3.76,0,0,1,2.35.63,2.43,2.43,0,0,1,0,3.64Z"/><polygon class="cls-1" points="187.23 70.17 192.4 70.17 192.4 54.64 196.65 54.64 196.65 50.26 182.98 50.26 182.98 54.64 187.23 54.64 187.23 70.17"/><path class="cls-1" d="M217.86,52.74a10.49,10.49,0,0,0-3.49-2.23,12.75,12.75,0,0,0-8.89,0,10.53,10.53,0,0,0-5.74,13.83,10.21,10.21,0,0,0,5.74,5.57,12.6,12.6,0,0,0,8.89,0,10.34,10.34,0,0,0,3.49-2.23,10.2,10.2,0,0,0,2.29-3.34,10.81,10.81,0,0,0,0-8.26A10.31,10.31,0,0,0,217.86,52.74Zm-2.75,9.66a5.54,5.54,0,0,1-1.23,1.75,5.62,5.62,0,0,1-1.8,1.14,5.84,5.84,0,0,1-4.3,0A5.43,5.43,0,0,1,206,64.15a5.68,5.68,0,0,1-1.22-1.75,5.67,5.67,0,0,1,0-4.38A5.52,5.52,0,0,1,206,56.28a5.45,5.45,0,0,1,1.78-1.15,5.84,5.84,0,0,1,4.3,0,5.65,5.65,0,0,1,1.8,1.15A5.39,5.39,0,0,1,215.11,58a5.55,5.55,0,0,1,0,4.38Z"/><path class="cls-1" d="M247.52,61.08c0,.58,0,1.18-.06,1.79a4.88,4.88,0,0,1-.41,1.65,2.89,2.89,0,0,1-1.05,1.2,3.64,3.64,0,0,1-2,.46,3.72,3.72,0,0,1-2-.46,2.76,2.76,0,0,1-1-1.2,4.87,4.87,0,0,1-.39-1.65c0-.61-.07-1.21-.07-1.79V50.26h-5.17V61.8c0,3.09.71,5.36,2.14,6.78s3.6,2.14,6.54,2.14,5.12-.71,6.54-2.14,2.12-3.69,2.12-6.78V50.26h-5.15Z"/><path class="cls-1" d="M275.35,60.21a9.65,9.65,0,0,0-.77-3.79,10,10,0,0,0-2.1-3.16,10.33,10.33,0,0,0-3.11-2.18,9,9,0,0,0-3.82-.82H257.9v19.9h7.65a9.12,9.12,0,0,0,3.84-.81,10.46,10.46,0,0,0,3.12-2.19A9.89,9.89,0,0,0,274.59,64,9.54,9.54,0,0,0,275.35,60.21Zm-5.8,2.23a4.8,4.8,0,0,1-1.11,1.76,5,5,0,0,1-1.78,1.16,6.42,6.42,0,0,1-2.4.42h-1.19V54.64h1.19a6.43,6.43,0,0,1,2.38.42,5.25,5.25,0,0,1,1.78,1.17A5,5,0,0,1,269.54,58a6.44,6.44,0,0,1,0,4.44Z"/><polygon class="cls-1" points="291.03 65.78 284.88 65.78 284.88 62.35 290.69 62.35 290.69 57.97 284.88 57.97 284.88 54.64 291.03 54.64 291.03 50.26 279.7 50.26 279.7 70.17 291.03 70.17 291.03 65.78"/><path class="cls-1" d="M301.85,56.29a5.55,5.55,0,0,1,8.29.62V50.74a12.77,12.77,0,0,0-2.42-.78,10.66,10.66,0,0,0-2.33-.25,10.42,10.42,0,0,0-4,.77,10.69,10.69,0,0,0-3.34,2.17,10.33,10.33,0,0,0-2.29,3.3,10.07,10.07,0,0,0-.86,4.21,10.28,10.28,0,0,0,.87,4.24,10.88,10.88,0,0,0,2.31,3.35,10.36,10.36,0,0,0,3.33,2.19,10.18,10.18,0,0,0,3.94.78,10.83,10.83,0,0,0,2-.2,15.05,15.05,0,0,0,2.22-.62l.53-.18V63.59a6,6,0,0,1-4.46,2.11,5.26,5.26,0,0,1-2.11-.42,5.45,5.45,0,0,1-1.71-1.16,5.28,5.28,0,0,1-1.13-1.74,5.81,5.81,0,0,1-.41-2.19,5.74,5.74,0,0,1,.41-2.17A5.38,5.38,0,0,1,301.85,56.29Z"/><path class="cls-1" d="M94.72,98.23h1.75l1.76-4.16h5.3l1.76,4.16H107l-6.17-14.1Zm4-5.54,2.16-5,2.16,5Z"/><path class="cls-1" d="M115.46,85.35a3.13,3.13,0,0,0-1.22-.52,10.63,10.63,0,0,0-2.2-.16H109.2V98.23h1.58V92.15H112a11.32,11.32,0,0,0,2.2-.16,3.3,3.3,0,0,0,1.22-.53,3.08,3.08,0,0,0,1-1.27,4.63,4.63,0,0,0,0-3.58A3,3,0,0,0,115.46,85.35Zm-1.08,4.85a5.5,5.5,0,0,1-2.79.48h-.81V86.14h.81a5.17,5.17,0,0,1,2.78.53,2.1,2.1,0,0,1,.73,1.83A1.91,1.91,0,0,1,114.38,90.2Z"/><path class="cls-1" d="M123.5,91.77a3.86,3.86,0,0,0,2.73-.87,3.29,3.29,0,0,0,.93-2.53,4.52,4.52,0,0,0-.33-1.76,3,3,0,0,0-.94-1.26,2.86,2.86,0,0,0-1.11-.53,9.61,9.61,0,0,0-2-.15h-3.19V98.23h1.58V91.77h.23l4.95,6.46h2.05l-5.18-6.46Zm-2.33-1.2V86h1.23a4.31,4.31,0,0,1,2.51.52,2.21,2.21,0,0,1,.66,1.83,2,2,0,0,1-.64,1.7,4.45,4.45,0,0,1-2.53.49Z"/><polygon class="cls-1" points="130.51 98.23 137.66 98.23 137.66 96.73 132.12 96.73 132.12 91.53 137.66 91.53 137.66 90.03 132.12 90.03 132.12 86.14 137.66 86.14 137.66 84.67 130.51 84.67 130.51 98.23"/><polygon class="cls-1" points="151.08 94.97 141.16 84.13 141.16 98.23 142.69 98.23 142.69 88.04 152.62 98.76 152.62 84.67 151.08 84.67 151.08 94.97"/><path class="cls-1" d="M165.36,85.94a5.51,5.51,0,0,0-2.07-1,19.69,19.69,0,0,0-4.07-.29h-2.6V98.23h3.19a15.24,15.24,0,0,0,3.53-.29,5.43,5.43,0,0,0,2-1,5.52,5.52,0,0,0,1.78-2.29,9,9,0,0,0,0-6.43A5.62,5.62,0,0,0,165.36,85.94Zm.25,8a4.33,4.33,0,0,1-1.27,1.79,3.83,3.83,0,0,1-1.6.75,19,19,0,0,1-3.46.21h-1V86.16h1a17.72,17.72,0,0,1,3.44.23,3.7,3.7,0,0,1,1.62.76,4.39,4.39,0,0,1,1.28,1.79,6.65,6.65,0,0,1,.43,2.5A6.79,6.79,0,0,1,165.61,94Z"/><rect class="cls-1" x="171.15" y="84.67" width="1.61" height="13.56"/><polygon class="cls-1" points="176.52 84.67 176.52 86.14 182.71 86.14 175.08 98.23 185.13 98.23 185.13 96.69 177.89 96.69 185.44 84.67 176.52 84.67"/><path class="cls-1" d="M186.44,98.23h1.75L190,94.07h5.3L197,98.23h1.75l-6.17-14.1Zm4-5.54,2.16-5,2.16,5Z"/><path class="cls-1" d="M203.51,94.45a4.88,4.88,0,0,1-.31,2.15,1.07,1.07,0,0,1-1,.55,1.89,1.89,0,0,1-.89-.22,4,4,0,0,1-.92-.74l-1.07,1.06a4,4,0,0,0,1.26,1,3.52,3.52,0,0,0,1.51.32,3,3,0,0,0,2.32-.82,3.61,3.61,0,0,0,.76-2.52V84.67h-1.63Z"/><polygon class="cls-1" points="209.03 98.23 216.18 98.23 216.18 96.73 210.64 96.73 210.64 91.53 216.18 91.53 216.18 90.03 210.64 90.03 210.64 86.14 216.18 86.14 216.18 84.67 209.03 84.67 209.03 98.23"/><polygon class="cls-1" points="226.03 98.23 233.18 98.23 233.18 96.73 227.64 96.73 227.64 91.53 233.18 91.53 233.18 90.03 227.64 90.03 227.64 86.14 233.18 86.14 233.18 84.67 226.03 84.67 226.03 98.23"/><polygon class="cls-1" points="246.59 94.97 236.67 84.13 236.67 98.23 238.21 98.23 238.21 88.04 248.13 98.76 248.13 84.67 246.59 84.67 246.59 94.97"/><polygon class="cls-1" points="260.1 84.67 258.49 84.67 258.49 98.23 265.23 98.23 265.23 96.69 260.1 96.69 260.1 84.67"/><polygon class="cls-1" points="267.41 83.32 268.52 83.32 271.16 80.09 269.3 80.09 267.41 83.32"/><rect class="cls-1" x="267.92" y="84.67" width="1.61" height="13.56"/><polygon class="cls-1" points="283.5 94.97 273.57 84.13 273.57 98.23 275.11 98.23 275.11 88.04 285.03 98.76 285.03 84.67 283.5 84.67 283.5 94.97"/><polygon class="cls-1" points="289.04 98.23 296.19 98.23 296.19 96.73 290.65 96.73 290.65 91.53 296.19 91.53 296.19 90.03 290.65 90.03 290.65 86.14 296.19 86.14 296.19 84.67 289.04 84.67 289.04 98.23"/><path class="cls-1" d="M297.82,98.23h1.75l1.76-4.16h5.3l1.76,4.16h1.75L304,84.13Zm4-5.54,2.16-5,2.16,5Z"/><path class="cls-1" d="M38.41,34.76h14v34a18.08,18.08,0,0,1-14,17.6v17.12A34.34,34.34,0,0,0,68.68,69.36V18.45H38.41Z"/><path class="cls-1" d="M0,69.36a34.34,34.34,0,0,0,30.27,34.09V86.33a18.07,18.07,0,0,1-14-17.6v-34h14V18.45H0Z"/></svg>